<svg width="891" height="150" viewBox="0 0 891 150" fill="none" xmlns="http://www.w3.org/2000/svg">
<path d="M112.25 33.75V44.6H100.625L91.945 100.4H106.05V111.25H90.395L86.21 138.375H52.73L56.915 111.25H44.05L39.865 138.375H6.385L10.57 111.25H0.65V100.4H12.12L20.8 44.6H6.85V33.75H22.35L26.535 6.625H60.015L55.83 33.75H68.695L72.88 6.625H106.36L102.175 33.75H112.25ZM45.6 100.4H58.465L67.145 44.6H54.28L45.6 100.4ZM269.617 63.2H271.942V72.5H269.617C266.362 72.5 264.192 73.74 264.192 78.08V144.575H223.892V0.424993H264.192V57.62C264.192 62.115 266.362 63.2 269.617 63.2ZM190.412 2.74999V94.975C190.412 121.945 207.462 127.835 216.142 127.835V138.375C197.387 138.375 181.267 134.5 167.782 127.835C154.142 134.5 138.022 138.375 119.267 138.375V127.835C127.947 127.835 144.997 121.945 144.997 94.975V2.74999H190.412ZM380.406 144.575V0.424993H420.706V144.575H380.406ZM332.356 43.05V59.945C332.356 82.265 351.111 91.875 372.656 91.875V138.375C345.841 138.375 329.876 129.385 327.706 110.01C327.551 109.08 326.931 108.615 326.156 108.615C325.381 108.615 324.761 109.08 324.606 110.01C322.436 129.385 306.471 138.375 279.656 138.375V91.875C301.201 91.875 319.956 82.265 319.956 59.945V43.05H281.206V2.74999H371.106V43.05H332.356ZM481.156 76.375C452.016 76.375 433.106 61.96 433.106 39.485V37.16C433.106 14.84 452.016 0.424993 481.156 0.424993C510.296 0.424993 529.206 14.84 529.206 37.315V39.95C529.206 61.96 510.296 76.375 481.156 76.375ZM581.131 30.65H583.456V39.95H581.131C577.876 39.95 575.706 41.19 575.706 45.53V74.825H535.406V0.424993H575.706V25.07C575.706 29.565 577.876 30.65 581.131 30.65ZM476.506 15.925V60.875C476.506 63.51 478.521 65.525 481.156 65.525C483.791 65.525 485.806 63.51 485.806 60.875V15.925C485.806 13.29 483.791 11.275 481.156 11.275C478.521 11.275 476.506 13.29 476.506 15.925ZM533.856 78.7H543.156C543.156 81.955 545.946 84.125 550.286 84.125H580.356V124.425H563.306C563.306 138.22 552.146 149.225 538.506 149.225C524.866 149.225 513.706 138.22 513.706 124.425H496.656V84.125H526.726C531.066 84.125 533.856 81.955 533.856 78.7ZM482.706 82.575V128.92C482.706 131.555 484.876 133.725 487.511 133.725H507.506V144.575H458.216C449.071 144.575 442.406 137.91 442.406 128.765V82.575H482.706ZM538.506 138.375C546.256 138.375 552.611 132.02 552.611 124.27C552.611 116.52 546.256 110.01 538.506 110.01C530.756 110.01 524.401 116.52 524.401 124.27C524.401 132.02 530.756 138.375 538.506 138.375ZM621.24 2.74999H703.855C718.115 2.74999 729.895 13.755 729.895 29.41C729.895 44.91 718.115 56.225 703.7 56.225H621.085C606.825 56.225 595.045 44.91 595.045 29.41C595.045 13.755 606.825 2.74999 621.24 2.74999ZM667.12 42.275V16.7C667.12 14.065 665.105 12.05 662.47 12.05C659.835 12.05 657.82 14.065 657.82 16.7V42.275C657.82 44.91 659.835 46.925 662.47 46.925C665.105 46.925 667.12 44.91 667.12 42.275ZM590.395 75.6V64.75H734.545V75.6H590.395ZM595.045 122.875C595.045 104.275 615.35 97.92 632.865 105.67L686.805 129.54C692.54 132.02 695.64 123.96 690.06 121.48L637.98 98.85C630.54 95.595 626.355 94.975 619.225 94.975H596.595V84.125H704.475C722.145 84.125 729.895 96.525 729.895 106.29C729.895 116.675 724.78 123.805 713.93 129.695L706.49 133.725H729.895V144.575H620.465C604.345 144.575 595.045 135.275 595.045 122.875ZM853.12 57.465V0.424993H890.32V144.575H853.12V75.135C853.12 72.81 851.26 71.725 849.865 71.725C848.47 71.725 846.61 72.81 846.61 75.135V144.575H826.46V0.424993H846.61V57.465C846.61 59.79 848.47 60.875 849.865 60.875C851.26 60.875 853.12 59.79 853.12 57.465ZM797.32 2.74999C815.92 2.74999 825.22 14.84 819.795 34.37L791.12 138.375H746.17L780.115 21.97C781.665 16.7 780.27 13.6 775.465 13.6H746.17V2.74999H797.32Z" fill="white"/>
</svg>
