<svg width="57" height="57" viewBox="0 0 57 57" fill="none" xmlns="http://www.w3.org/2000/svg">
<path d="M28.4062 5.14422C35.9813 5.14422 36.8902 5.14422 39.8824 5.31517C41.6798 5.33154 43.4608 5.65927 45.147 6.2839C46.3767 6.75292 47.4934 7.47781 48.4236 8.41088C49.3539 9.34394 50.0766 10.464 50.5442 11.6974C51.173 13.3876 51.5062 15.174 51.5289 16.978C51.6615 19.9981 51.6994 20.8909 51.6994 28.5078C51.6994 36.1247 51.6994 36.9985 51.5289 40.0186C51.5062 41.8226 51.173 43.609 50.5442 45.2992C50.0683 46.5278 49.3427 47.6436 48.4135 48.5756C47.4843 49.5076 46.3719 50.2354 45.147 50.7127C43.4608 51.3373 41.6798 51.6651 39.8824 51.6814C36.8902 51.8334 35.9813 51.8524 28.4062 51.8524C20.8312 51.8524 19.9222 51.8524 16.9301 51.6814C15.1266 51.665 13.3393 51.3373 11.6466 50.7127C10.4143 50.2599 9.30062 49.5325 8.38931 48.5853C7.44864 47.6608 6.72423 46.5385 6.26831 45.2992C5.63001 43.6116 5.29655 41.8235 5.28356 40.0186C5.151 37.0175 5.11312 36.1057 5.11312 28.5078C5.11312 20.9099 5.11312 19.9981 5.28356 16.997C5.29997 15.1879 5.62668 13.3953 6.24938 11.6974C6.70754 10.4603 7.43916 9.34327 8.38931 8.43031C9.30062 7.48314 10.4143 6.75574 11.6466 6.3029C13.3383 5.67221 15.1255 5.33809 16.9301 5.31517C19.9222 5.18221 20.8312 5.14422 28.4062 5.14422ZM28.4062 0.015625C20.6798 0.015625 19.7139 0.0156253 16.6839 0.186578C14.3271 0.229538 11.9953 0.679324 9.79069 1.51621C7.90174 2.23685 6.19 3.35771 4.77225 4.80231C3.32004 6.21448 2.20071 7.93424 1.49606 9.83593C0.661698 12.0472 0.213268 14.3861 0.170438 16.75C2.82191e-07 19.7892 0 20.7579 0 28.5078C0 36.2577 2.82191e-07 37.2074 0.170438 40.2466C0.209849 42.6109 0.65839 44.9503 1.49606 47.1607C2.20723 49.0646 3.32549 50.7892 4.77225 52.2133C6.19 53.6579 7.90174 54.7787 9.79069 55.4994C12.0014 56.338 14.3397 56.7879 16.7029 56.829C19.7329 56.962 20.6987 57 28.4062 57C36.1138 57 37.0796 57 40.1096 56.829C42.4728 56.7879 44.8111 56.338 47.0218 55.4994C48.9069 54.7652 50.6185 53.6443 52.0468 52.2083C53.4751 50.7724 54.5888 49.0532 55.3164 47.1607C56.1541 44.9503 56.6026 42.6109 56.6421 40.2466C56.8125 37.2074 56.8125 36.2387 56.8125 28.5078C56.8125 20.7769 56.8125 19.7892 56.6421 16.75C56.5992 14.3861 56.1508 12.0472 55.3164 9.83593C54.605 7.93767 53.4866 6.21931 52.0402 4.80231C50.6289 3.34082 48.9071 2.21757 47.0029 1.51621C44.7992 0.676006 42.4668 0.226109 40.1096 0.186578C37.0796 0.0156253 36.1138 0.015625 28.4062 0.015625Z" fill="white"/>
<path d="M28.4063 13.8823C25.5222 13.8823 22.703 14.7401 20.305 16.3472C17.907 17.9544 16.038 20.2386 14.9344 22.9112C13.8307 25.5837 13.5419 28.5245 14.1046 31.3617C14.6672 34.1989 16.056 36.805 18.0953 38.8504C20.1346 40.8959 22.7329 42.2889 25.5615 42.8533C28.3901 43.4176 31.322 43.128 33.9865 42.021C36.651 40.9139 38.9284 39.0393 40.5306 36.6341C42.1329 34.2288 42.9881 31.4011 42.9881 28.5083C42.9881 24.6293 41.4518 20.9091 38.7172 18.1662C35.9826 15.4233 32.2736 13.8823 28.4063 13.8823ZM28.4063 38.0057C26.5335 38.0057 24.7028 37.4487 23.1457 36.4051C21.5886 35.3615 20.3749 33.8782 19.6583 32.1428C18.9416 30.4074 18.7541 28.4978 19.1194 26.6555C19.4848 24.8131 20.3866 23.1209 21.7108 21.7926C23.0351 20.4644 24.7222 19.5599 26.559 19.1934C28.3957 18.8269 30.2996 19.015 32.0298 19.7339C33.76 20.4527 35.2388 21.67 36.2792 23.2318C37.3197 24.7937 37.875 26.6299 37.875 28.5083C37.875 31.0272 36.8774 33.4429 35.1017 35.224C33.3259 37.0051 30.9175 38.0057 28.4063 38.0057Z" fill="white"/>
<path d="M46.965 13.3121C46.965 13.9884 46.7651 14.6494 46.3905 15.2117C46.016 15.7739 45.4836 16.2121 44.8607 16.4709C44.2379 16.7297 43.5525 16.7974 42.8912 16.6655C42.23 16.5336 41.6226 16.2079 41.1459 15.7298C40.6692 15.2516 40.3445 14.6424 40.213 13.9792C40.0815 13.3159 40.149 12.6285 40.407 12.0037C40.665 11.379 41.1019 10.845 41.6624 10.4693C42.223 10.0936 42.8821 9.89307 43.5563 9.89307C44.4603 9.89307 45.3273 10.2533 45.9666 10.8945C46.6059 11.5357 46.965 12.4053 46.965 13.3121Z" fill="white"/>
</svg>
