<svg width="67" height="47" viewBox="0 0 67 47" fill="none" xmlns="http://www.w3.org/2000/svg">
<path d="M65.5994 7.34015C65.2171 5.91731 64.469 4.62003 63.4298 3.57807C62.3906 2.5361 61.0968 1.78597 59.6778 1.4027C54.446 0 33.5 0 33.5 0C33.5 0 12.554 0 7.32224 1.4027C5.90232 1.7842 4.60756 2.53373 3.5681 3.57597C2.52864 4.61821 1.7811 5.91643 1.40062 7.34015C0.436642 12.6718 -0.0316862 18.0816 0.00166288 23.5C-0.0316862 28.9184 0.436642 34.3282 1.40062 39.6599C1.7811 41.0836 2.52864 42.3818 3.5681 43.424C4.60756 44.4663 5.90232 45.2158 7.32224 45.5973C12.554 47 33.5 47 33.5 47C33.5 47 54.446 47 59.6778 45.6165C61.0974 45.228 62.3909 44.4738 63.4297 43.4289C64.4685 42.3839 65.2165 41.0845 65.5994 39.6599C66.5634 34.3282 67.0317 28.9184 66.9983 23.5C67.0317 18.0816 66.5634 12.6718 65.5994 7.34015ZM26.7927 33.5687V13.4313L44.2126 23.5L26.7927 33.5687Z" fill="white"/>
</svg>
