<svg width="29" height="57" viewBox="0 0 29 57" fill="none" xmlns="http://www.w3.org/2000/svg">
<path d="M8.27643 57H18.9838V32.0489H27.5943L28.9861 22.2053C28.9861 22.2053 29.1716 22.0723 28.1881 22.0723H18.9096V12.9318C19.1505 11.8457 19.7889 10.8954 20.6933 10.2767C21.5978 9.65809 22.6995 9.41814 23.7715 9.60629H28.8005V0.92188C25.1089 -0.0898227 21.2473 -0.27134 17.4807 0.389794C16.047 0.597739 14.6676 1.09439 13.4223 1.85107C12.1769 2.60776 11.0902 3.60951 10.2249 4.79851C8.96269 6.31386 8.27154 8.24166 8.27643 10.2334V22.0723H0V32.0489H8.27643V57Z" fill="white"/>
</svg>
