<svg width="757" height="361" viewBox="0 0 757 361" fill="none" xmlns="http://www.w3.org/2000/svg">
<path d="M0.873828 24.211V23.026C0.873828 17.18 3.87583 12.282 9.24783 9.28H0.0838283V3.75H17.3848C19.5968 3.75 21.0188 2.644 21.0188 0.984998H25.7588C25.7588 2.644 27.1808 3.75 29.3928 3.75H46.6938V9.28H37.5298C42.9018 12.282 45.9038 17.18 45.9038 23.026V24.448C45.9038 34.165 37.4508 41.275 23.3888 41.275C9.32683 41.275 0.873828 34.165 0.873828 24.211ZM51.4338 40.485V33.454C51.4338 31.163 50.3278 30.61 48.6688 30.61V25.87C50.3278 25.87 51.4338 25.238 51.4338 23.026V18.444C51.4338 16.232 50.3278 15.6 48.6688 15.6V10.86C50.3278 10.86 51.4338 10.307 51.4338 8.016V2.565H71.9738V40.485H51.4338ZM25.7588 34.165V13.23C25.7588 11.887 24.7318 10.86 23.3888 10.86C22.0458 10.86 21.0188 11.887 21.0188 13.23V34.165C21.0188 35.508 22.0458 36.535 23.3888 36.535C24.7318 36.535 25.7588 35.508 25.7588 34.165ZM64.9428 67.266L59.7288 70.505H73.5538V76.035H16.9898C7.98383 76.035 4.03383 70.505 4.03383 64.738C4.03383 54.705 14.3828 51.545 23.3098 55.416L51.5918 67.582C54.5148 68.846 56.0948 64.659 53.2508 63.474L25.9168 51.94C22.1248 50.36 19.9918 49.965 16.3578 49.965H5.61383V44.435H59.8078C68.8138 44.435 72.7638 49.728 72.7638 55.179C72.7638 60.551 69.7618 64.343 64.9428 67.266ZM148.999 32.19H89.1168C84.4558 32.19 81.0588 28.793 81.0588 24.132V11.808C81.0588 7.147 84.4558 3.75 89.1168 3.75H148.999V9.28H107.208C105.865 9.28 104.759 10.386 104.759 11.729V15.995H148.999V20.735H104.759V24.211C104.759 25.554 105.865 26.66 107.208 26.66H148.999V32.19ZM121.428 37.325H152.159V42.855H78.6888V37.325H109.42C111.632 37.325 113.054 36.219 113.054 34.56H117.794C117.794 36.219 119.216 37.325 121.428 37.325ZM94.8838 46.805H135.885C144.022 46.805 150.579 52.651 150.579 61.42C150.579 70.189 144.022 76.035 135.964 76.035H94.9628C86.8258 76.035 80.2688 70.189 80.2688 61.42C80.2688 52.651 86.8258 46.805 94.8838 46.805ZM117.794 68.925V53.915C117.794 52.572 116.767 51.545 115.424 51.545C114.081 51.545 113.054 52.572 113.054 53.915V68.925C113.054 70.268 114.081 71.295 115.424 71.295C116.767 71.295 117.794 70.268 117.794 68.925ZM238.919 41.275H187.885C183.224 41.275 179.827 37.878 179.827 33.217V3.75H185.357V5.172C185.357 6.515 186.463 7.621 187.806 7.621H238.998C240.341 7.621 241.447 6.515 241.447 5.172V3.75H246.977V33.217C246.977 37.878 243.58 41.275 238.919 41.275ZM185.357 15.521C185.357 16.864 186.463 17.891 187.806 17.891H238.998C240.341 17.891 241.447 16.864 241.447 15.521C241.447 14.178 240.341 13.151 238.998 13.151H187.806C186.463 13.151 185.357 14.178 185.357 15.521ZM250.137 72.875H176.667V52.335H207.003C209.215 52.335 210.637 51.229 210.637 49.57V47.2H216.167V49.57C216.167 51.229 217.589 52.335 219.801 52.335H250.137V72.875ZM330.717 17.97H331.902V22.71H330.717C329.058 22.71 327.952 23.342 327.952 25.554V40.485H307.412V2.565H327.952V15.126C327.952 17.417 329.058 17.97 330.717 17.97ZM279.367 26.028C277.866 35.034 270.519 40.485 256.062 40.485V15.995C267.833 15.995 276.997 14.257 277.787 9.28H256.062V3.75H304.252V9.28H282.527C283.317 14.257 292.481 15.995 304.252 15.995V40.485C289.795 40.485 282.448 35.034 280.947 26.028C280.868 25.554 280.552 25.317 280.157 25.317C279.762 25.317 279.446 25.554 279.367 26.028ZM275.022 44.435H312.863C321.632 44.435 328.742 50.755 328.742 60.235C328.742 69.715 321.632 76.035 312.942 76.035H275.101C266.332 76.035 259.222 69.715 259.222 60.235C259.222 50.755 266.332 44.435 275.022 44.435ZM278.024 70.189L311.915 54.626C314.759 53.362 312.863 48.938 309.94 50.281L276.049 65.923C273.047 67.345 275.101 71.532 278.024 70.189ZM335.834 17.18C335.834 8.332 343.102 3.355 350.844 3.355C358.586 3.355 365.854 8.332 365.854 17.18C365.854 21.841 364.116 25.475 359.929 30.61C354.241 37.562 353.214 43.408 353.214 47.595H348.474C348.474 43.408 347.447 37.562 341.759 30.61C337.572 25.475 335.834 21.841 335.834 17.18ZM350.844 73.665C344.761 73.665 339.784 68.688 339.784 62.605C339.784 56.522 344.761 51.545 350.844 51.545C356.927 51.545 361.904 56.522 361.904 62.605C361.904 68.688 356.927 73.665 350.844 73.665ZM439.734 30.61V25.87C441.393 25.87 442.499 25.238 442.499 23.026V18.444C442.499 16.232 441.393 15.6 439.734 15.6V10.86C441.393 10.86 442.499 10.307 442.499 8.016V2.565H463.039V40.485H442.499V33.454C442.499 31.163 441.393 30.61 439.734 30.61ZM428.911 39.695H399.207C394.546 39.695 391.149 36.298 391.149 31.637V3.75H436.969V31.637C436.969 36.298 433.572 39.695 428.911 39.695ZM416.429 31.795V10.86C416.429 9.517 415.402 8.49 414.059 8.49C412.716 8.49 411.689 9.517 411.689 10.86V31.795C411.689 33.138 412.716 34.165 414.059 34.165C415.402 34.165 416.429 33.138 416.429 31.795ZM448.029 76.035H410.188C401.419 76.035 394.309 69.715 394.309 60.235C394.309 50.755 401.419 44.435 410.109 44.435H447.95C456.719 44.435 463.829 50.755 463.829 60.235C463.829 69.715 456.719 76.035 448.029 76.035ZM413.111 70.189L447.002 54.626C449.846 53.362 447.95 48.938 445.027 50.281L411.136 65.923C408.134 67.345 410.188 71.532 413.111 70.189ZM472.124 3.75H540.854V9.28H534.139L523.869 27.055H540.064V32.585H472.914V27.055H489.109L478.839 9.28H472.124V3.75ZM496.219 27.055H516.759L508.859 11.255C508.227 9.991 507.753 9.28 506.489 9.28C505.225 9.28 504.751 9.991 504.119 11.255L496.219 27.055ZM469.754 42.065V36.535H543.224V42.065H512.493C510.281 42.065 508.859 43.171 508.859 44.83H504.119C504.119 43.171 502.697 42.065 500.485 42.065H469.754ZM532.006 76.035H480.972C476.311 76.035 472.914 72.638 472.914 67.977V46.805H540.064V67.977C540.064 72.638 536.667 76.035 532.006 76.035ZM478.444 68.135C478.444 69.478 479.55 70.505 480.893 70.505H532.085C533.428 70.505 534.534 69.478 534.534 68.135C534.534 66.792 533.428 65.765 532.085 65.765H480.893C479.55 65.765 478.444 66.792 478.444 68.135ZM629.985 41.275H578.951C574.29 41.275 570.893 37.878 570.893 33.217V3.75H576.423V5.172C576.423 6.515 577.529 7.621 578.872 7.621H630.064C631.407 7.621 632.513 6.515 632.513 5.172V3.75H638.043V33.217C638.043 37.878 634.646 41.275 629.985 41.275ZM576.423 15.521C576.423 16.864 577.529 17.891 578.872 17.891H630.064C631.407 17.891 632.513 16.864 632.513 15.521C632.513 14.178 631.407 13.151 630.064 13.151H578.872C577.529 13.151 576.423 14.178 576.423 15.521ZM641.203 72.875H567.733V52.335H598.069C600.281 52.335 601.703 51.229 601.703 49.57V47.2H607.233V49.57C607.233 51.229 608.655 52.335 610.867 52.335H641.203V72.875ZM721.783 17.97H722.968V22.71H721.783C720.124 22.71 719.018 23.342 719.018 25.554V40.485H698.478V2.565H719.018V15.126C719.018 17.417 720.124 17.97 721.783 17.97ZM670.433 26.028C668.932 35.034 661.585 40.485 647.128 40.485V15.995C658.899 15.995 668.063 14.257 668.853 9.28H647.128V3.75H695.318V9.28H673.593C674.383 14.257 683.547 15.995 695.318 15.995V40.485C680.861 40.485 673.514 35.034 672.013 26.028C671.934 25.554 671.618 25.317 671.223 25.317C670.828 25.317 670.512 25.554 670.433 26.028ZM666.088 44.435H703.929C712.698 44.435 719.808 50.755 719.808 60.235C719.808 69.715 712.698 76.035 704.008 76.035H666.167C657.398 76.035 650.288 69.715 650.288 60.235C650.288 50.755 657.398 44.435 666.088 44.435ZM669.09 70.189L702.981 54.626C705.825 53.362 703.929 48.938 701.006 50.281L667.115 65.923C664.113 67.345 666.167 71.532 669.09 70.189ZM726.899 17.18C726.899 8.332 734.167 3.355 741.909 3.355C749.651 3.355 756.919 8.332 756.919 17.18C756.919 21.841 755.181 25.475 750.994 30.61C745.306 37.562 744.279 43.408 744.279 47.595H739.539C739.539 43.408 738.512 37.562 732.824 30.61C728.637 25.475 726.899 21.841 726.899 17.18ZM741.909 73.665C735.826 73.665 730.849 68.688 730.849 62.605C730.849 56.522 735.826 51.545 741.909 51.545C747.992 51.545 752.969 56.522 752.969 62.605C752.969 68.688 747.992 73.665 741.909 73.665ZM80.2827 161.55V167.08H74.3577L69.9337 195.52H77.1227V201.05H69.1437L67.0107 214.875H49.9467L52.0797 201.05H45.5227L43.3897 214.875H26.3257L28.4587 201.05H23.4027V195.52H29.2487L33.6727 167.08H26.5627V161.55H34.4627L36.5957 147.725H53.6597L51.5267 161.55H58.0837L60.2167 147.725H77.2807L75.1477 161.55H80.2827ZM46.3127 195.52H52.8697L57.2937 167.08H50.7367L46.3127 195.52ZM107.322 142.985H112.062C112.062 144.644 113.484 145.75 115.696 145.75H134.024V151.28H119.962C128.099 154.124 132.997 160.444 132.997 168.186V169.371C132.997 180.115 123.754 188.015 109.692 188.015C95.6303 188.015 86.3873 180.115 86.3873 169.371V168.186C86.3873 160.444 91.2853 154.124 99.4223 151.28H85.4393V145.75H103.688C105.9 145.75 107.322 144.644 107.322 142.985ZM160.489 176.56H161.674V181.3H160.489C158.83 181.3 157.724 181.932 157.724 184.144V218.035H137.184V144.565H157.724V173.716C157.724 176.007 158.83 176.56 160.489 176.56ZM112.062 180.905V156.81C112.062 155.467 111.035 154.44 109.692 154.44C108.349 154.44 107.322 155.467 107.322 156.81V180.905C107.322 182.248 108.349 183.275 109.692 183.275C111.035 183.275 112.062 182.248 112.062 180.905ZM112.22 189.99V191.57C112.22 193.229 113.642 194.335 115.854 194.335H134.024V214.875H85.4393V194.335H103.056C105.268 194.335 106.69 193.229 106.69 191.57V189.99H112.22ZM186.936 168.028C185.83 177.903 177.693 182.485 164.816 182.485V157.995C175.797 157.995 185.356 153.097 185.356 145.276V144.565H190.096V145.276C190.096 153.097 199.655 157.995 210.636 157.995V182.485C197.759 182.485 189.622 177.903 188.516 168.028C188.437 167.554 188.121 167.317 187.726 167.317C187.331 167.317 187.015 167.554 186.936 168.028ZM216.956 182.485V167.159C216.956 164.947 215.85 164.315 214.191 164.315H213.796V159.575H214.191C215.85 159.575 216.956 159.022 216.956 156.731V144.565H237.496V182.485H216.956ZM184.566 186.435H222.407C231.176 186.435 238.286 192.755 238.286 202.235C238.286 211.715 231.176 218.035 222.486 218.035H184.645C175.876 218.035 168.766 211.715 168.766 202.235C168.766 192.755 175.876 186.435 184.566 186.435ZM187.568 212.189L221.459 196.626C224.303 195.362 222.407 190.938 219.484 192.281L185.593 207.923C182.591 209.345 184.645 213.532 187.568 212.189ZM292.796 151.28H278.023C286.081 154.203 291.216 161.155 291.216 171.425V193.861C291.216 207.528 281.736 215.27 268.306 215.27C254.876 215.27 245.396 207.528 245.396 193.861V171.425C245.396 161.155 250.531 154.203 258.589 151.28H243.816V145.75H262.302C264.514 145.75 265.936 144.644 265.936 142.985H270.676C270.676 144.644 272.098 145.75 274.31 145.75H292.796V151.28ZM295.956 172.136V144.565H316.496V218.035H295.956V182.564C295.956 180.352 294.85 179.72 293.191 179.72H292.006V174.98H293.191C294.85 174.98 295.956 174.427 295.956 172.136ZM270.676 208.16V156.81C270.676 155.467 269.649 154.44 268.306 154.44C266.963 154.44 265.936 155.467 265.936 156.81V208.16C265.936 209.503 266.963 210.53 268.306 210.53C269.649 210.53 270.676 209.503 270.676 208.16ZM398.261 176.56H399.446V181.3H398.261C396.602 181.3 395.496 181.932 395.496 184.144V218.035H374.956V144.565H395.496V173.716C395.496 176.007 396.602 176.56 398.261 176.56ZM356.786 145.75C366.266 145.75 371.954 153.729 367.451 164.868L347.306 214.875H324.396L348.017 155.546C349.123 152.86 348.096 151.28 345.647 151.28H323.606V145.75H356.786ZM475.267 144.565V188.805H454.727V167.554C454.727 165.342 453.621 164.71 451.962 164.71H450.777V159.97H451.962C453.621 159.97 454.727 159.417 454.727 157.126V144.565H475.267ZM441.139 181.695H411.435C406.774 181.695 403.377 178.298 403.377 173.637V145.75H408.907V147.172C408.907 148.515 410.013 149.621 411.356 149.621H441.218C442.561 149.621 443.667 148.515 443.667 147.172V145.75H449.197V173.637C449.197 178.298 445.8 181.695 441.139 181.695ZM411.277 159.891H441.218C442.561 159.891 443.588 158.864 443.588 157.521C443.588 156.178 442.561 155.151 441.218 155.151H411.277C409.934 155.151 408.907 156.178 408.907 157.521C408.907 158.864 409.934 159.891 411.277 159.891ZM408.907 209.977V186.435H414.437V195.046C414.437 196.389 415.543 197.495 416.886 197.495H475.267V218.035H416.965C412.304 218.035 408.907 214.638 408.907 209.977ZM505.287 168.028C504.181 177.903 495.254 182.485 481.587 182.485V157.995C493.358 157.995 503.707 153.097 503.707 145.276V144.565H508.447V145.276C508.447 153.097 518.796 157.995 530.567 157.995V182.485C516.9 182.485 507.973 177.903 506.867 168.028C506.788 167.554 506.472 167.317 506.077 167.317C505.682 167.317 505.366 167.554 505.287 168.028ZM533.727 182.485V144.565H554.267V182.485H533.727ZM487.907 186.435H546.209C550.87 186.435 554.267 189.832 554.267 194.493V218.035H548.737V209.424C548.737 208.081 547.631 206.975 546.288 206.975H487.907V186.435ZM636.032 159.97H637.217V164.71H636.032C634.373 164.71 633.267 165.342 633.267 167.554V182.485H612.727V144.565H633.267V157.126C633.267 159.417 634.373 159.97 636.032 159.97ZM584.682 168.028C583.181 177.034 575.834 182.485 561.377 182.485V157.995C573.148 157.995 582.312 156.257 583.102 151.28H561.377V145.75H609.567V151.28H587.842C588.632 156.257 597.796 157.995 609.567 157.995V182.485C595.11 182.485 587.763 177.034 586.262 168.028C586.183 167.554 585.867 167.317 585.472 167.317C585.077 167.317 584.761 167.554 584.682 168.028ZM580.337 186.435H618.178C626.947 186.435 634.057 192.755 634.057 202.235C634.057 211.715 626.947 218.035 618.257 218.035H580.416C571.647 218.035 564.537 211.715 564.537 202.235C564.537 192.755 571.647 186.435 580.337 186.435ZM583.339 212.189L617.23 196.626C620.074 195.362 618.178 190.938 615.255 192.281L581.364 207.923C578.362 209.345 580.416 213.532 583.339 212.189ZM675.453 145.75H717.56C724.828 145.75 730.832 151.359 730.832 159.338C730.832 167.238 724.828 173.005 717.481 173.005H675.374C668.106 173.005 662.102 167.238 662.102 159.338C662.102 151.359 668.106 145.75 675.453 145.75ZM698.837 165.895V152.86C698.837 151.517 697.81 150.49 696.467 150.49C695.124 150.49 694.097 151.517 694.097 152.86V165.895C694.097 167.238 695.124 168.265 696.467 168.265C697.81 168.265 698.837 167.238 698.837 165.895ZM659.732 182.88V177.35H733.202V182.88H659.732ZM662.102 206.975C662.102 197.495 672.451 194.256 681.378 198.206L708.87 210.372C711.793 211.636 713.373 207.528 710.529 206.264L683.985 194.73C680.193 193.071 678.06 192.755 674.426 192.755H662.892V187.225H717.876C726.882 187.225 730.832 193.545 730.832 198.522C730.832 203.815 728.225 207.449 722.695 210.451L718.903 212.505H730.832V218.035H675.058C666.842 218.035 662.102 213.295 662.102 206.975ZM234.364 295.808V315.4H228.834V309.949C228.834 308.606 227.728 307.5 226.385 307.5H167.214V287.75H226.306C230.967 287.75 234.364 291.147 234.364 295.808ZM237.524 324.88H164.054V319.35H193.205C195.417 319.35 196.839 318.244 196.839 316.585V314.215H201.579V316.585C201.579 318.244 203.001 319.35 205.213 319.35H237.524V324.88ZM220.539 360.035H181.118C172.507 360.035 165.634 353.873 165.634 344.63C165.634 335.387 172.507 329.225 181.039 329.225H220.46C229.071 329.225 235.944 335.387 235.944 344.63C235.944 353.873 229.071 360.035 220.539 360.035ZM203.159 352.925V336.335C203.159 334.992 202.132 333.965 200.789 333.965C199.446 333.965 198.419 334.992 198.419 336.335V352.925C198.419 354.268 199.446 355.295 200.789 355.295C202.132 355.295 203.159 354.268 203.159 352.925ZM297.959 315.637V286.565H316.919V360.035H297.959V324.643C297.959 323.458 297.011 322.905 296.3 322.905C295.589 322.905 294.641 323.458 294.641 324.643V360.035H284.371V286.565H294.641V315.637C294.641 316.822 295.589 317.375 296.3 317.375C297.011 317.375 297.959 316.822 297.959 315.637ZM269.519 287.75C278.999 287.75 283.739 293.912 280.974 303.866L266.359 356.875H243.449L260.75 297.546C261.54 294.86 260.829 293.28 258.38 293.28H243.449V287.75H269.519ZM371.392 307.026V308.448C371.392 318.165 362.149 325.275 348.087 325.275C334.025 325.275 324.782 318.165 324.782 308.211V307.026C324.782 301.18 328.021 296.282 333.63 293.28H323.992V287.75H342.083C344.295 287.75 345.717 286.644 345.717 284.985H350.457C350.457 286.644 351.879 287.75 354.091 287.75H372.182V293.28H362.544C368.153 296.282 371.392 301.18 371.392 307.026ZM398.647 301.97H399.832V306.71H398.647C396.988 306.71 395.882 307.342 395.882 309.554V324.485H375.342V286.565H395.882V299.126C395.882 301.417 396.988 301.97 398.647 301.97ZM345.717 297.23V318.165C345.717 319.508 346.744 320.535 348.087 320.535C349.43 320.535 350.457 319.508 350.457 318.165V297.23C350.457 295.887 349.43 294.86 348.087 294.86C346.744 294.86 345.717 295.887 345.717 297.23ZM390.352 328.277V326.855H395.882V351.977C395.882 356.638 392.485 360.035 387.824 360.035H337.58C332.919 360.035 329.522 356.638 329.522 351.977V326.855H335.052V328.277C335.052 329.62 336.158 330.726 337.501 330.726H387.903C389.246 330.726 390.352 329.62 390.352 328.277ZM337.422 340.996H387.903C389.246 340.996 390.273 339.969 390.273 338.626C390.273 337.283 389.246 336.256 387.903 336.256H337.422C336.079 336.256 335.052 337.283 335.052 338.626C335.052 339.969 336.079 340.996 337.422 340.996ZM475.653 360.035H455.113V286.565H475.653V360.035ZM403.763 348.817V287.75H425.883V348.896C425.883 350.239 426.989 351.345 428.332 351.345H450.373V356.875H411.821C407.16 356.875 403.763 353.478 403.763 348.817ZM554.653 360.035H534.113V286.565H554.653V315.716C554.653 318.007 555.759 318.56 557.418 318.56H558.603V323.3H557.418C555.759 323.3 554.653 323.932 554.653 326.144V360.035ZM482.763 348.817V295.808C482.763 291.147 486.16 287.75 490.821 287.75H529.373V293.28H507.332C505.989 293.28 504.883 294.386 504.883 295.729V348.896C504.883 350.239 505.989 351.345 507.332 351.345H529.373V356.875H490.821C486.16 356.875 482.763 353.478 482.763 348.817ZM562.535 301.18C562.535 292.332 569.803 287.355 577.545 287.355C585.287 287.355 592.555 292.332 592.555 301.18C592.555 305.841 590.817 309.475 586.63 314.61C580.942 321.562 579.915 327.408 579.915 331.595H575.175C575.175 327.408 574.148 321.562 568.46 314.61C564.273 309.475 562.535 305.841 562.535 301.18ZM577.545 357.665C571.462 357.665 566.485 352.688 566.485 346.605C566.485 340.522 571.462 335.545 577.545 335.545C583.628 335.545 588.605 340.522 588.605 346.605C588.605 352.688 583.628 357.665 577.545 357.665Z" fill="white"/>
</svg>
